# xmcd
# 
# Track frame offsets:
#     183
#     4925
#     9230
#     13198
#     18188
#     20478
#     24375
#     25508
#     31255
#     36270
#     44288
#     46608
#     48888
#     51595
#     59130
#     64555
#     71375
#     74335
#     77545
#     82538
#     87700
#     89998
#     92753
#     97463
#     103190
#     105745
#     108620
#     111760
#     114955
#     122808
#     128608
#     136005
#     138573
#     141733
#     144575
#     146885
#     149165
#     151660
#     159733
#     164843
#     172268
#     176843
#     181198
#     182935
#     185475
#     188185
#     194400
#     195858
#     198433
#     202910
#     208103
#     216093
#     218805
#     224670
#     230538
# 
# Disc length: 3107
# 
# Revision: 3
# Processed by: cddbd v1.5.2PL0 Copyright (c) Steve Scherf et al.
# Submitted via: BonkEnc v1.0
# 
DISCID=390c2137
DTITLE=Tommy Scott - Original Hop -Scotch
DYEAR=0
DGENRE=
TTITLE0=Scotland The Brave
TTITLE1=No Awa Tae Bide Awa
TTITLE2=Bonnie Lass O'Fyvie
TTITLE3=Auld Maid In A Garret
TTITLE4=Northern Lights Of Old Aberdeen
TTITLE5=A Gordon For Me
TTITLE6=Fiddle- Me- Bob
TTITLE7=Your Cheating Heart
TTITLE8=Take These Chains From My Heart
TTITLE9=Married By The Bible
TTITLE10=My Love She's But A Lassie Yet
TTITLE11=Kate Dalrymple
TTITLE12=Clean Pea Strae
TTITLE13=Scotland For Ever
TTITLE14=My Ain Folk
TTITLE15=The Toorie On His Bonnett
TTITLE16=I Belong To Glasgow
TTITLE17=Dear Old Glesga Toon
TTITLE18=We're All Scots
TTITLE19=Campbeltown Loch
TTITLE20=Wie A Hundred Pipers
TTITLE21=Dovecoat Park
TTITLE22=Rothesay O'
TTITLE23=The Inveraray Inn
TTITLE24=Over The Water
TTITLE25=Come To See The Baby
TTITLE26=Coming Through The Rye
TTITLE27=The Black Bear
TTITLE28=Flower of Scotland
TTITLE29=A Man's A Man
TTITLE30=The Skye Boat Song
TTITLE31=Stop Yer Ticklin' Jock
TTITLE32=A Wee Deock An' Doris
TTITLE33=Sailin' Up The Clyde
TTITLE34=Rakes O' Barley
TTITLE35=Davie Knick Knack
TTITLE36=Joe The Toff
TTITLE37=Jealous Heart
TTITLE38=Send Me The Pillow
TTITLE39=Ten Guitars
TTITLE40=The Dundee Weaver
TTITLE41=The Muckin' O' Geordies Byre
TTITLE42=The Campbell's Are Comin'
TTITLE43=The Canty Auld Man
TTITLE44=The Saftest O' The Family
TTITLE45=The Ball O' Kirriemuir
TTITLE46=The Wee Cooper O' Five
TTITLE47=Electric Soup
TTITLE48=My Mothers Eyes
TTITLE49=Old Fashioned Mother Of Mine
TTITLE50=Hame O' Mine
TTITLE51=One For The Road
TTITLE52=Bluebells Of Scotland
TTITLE53=Road To The Isles
TTITLE54=The Black Bear (Reprise)
EXTD=
EXTT0=
EXTT1=
EXTT2=
EXTT3=
EXTT4=
EXTT5=
EXTT6=
EXTT7=
EXTT8=
EXTT9=
EXTT10=
EXTT11=
EXTT12=
EXTT13=
EXTT14=
EXTT15=
EXTT16=
EXTT17=
EXTT18=
EXTT19=
EXTT20=
EXTT21=
EXTT22=
EXTT23=
EXTT24=
EXTT25=
EXTT26=
EXTT27=
EXTT28=
EXTT29=
EXTT30=
EXTT31=
EXTT32=
EXTT33=
EXTT34=
EXTT35=
EXTT36=
EXTT37=
EXTT38=
EXTT39=
EXTT40=
EXTT41=
EXTT42=
EXTT43=
EXTT44=
EXTT45=
EXTT46=
EXTT47=
EXTT48=
EXTT49=
EXTT50=
EXTT51=
EXTT52=
EXTT53=
EXTT54=
PLAYORDER=
